<mxfile host="65bd71144e">
    <diagram id="I8YTT4misL5bQQVoJdpj" name="Page-1">
        <mxGraphModel dx="1358" dy="790" grid="1" gridSize="10" guides="1" tooltips="1" connect="1" arrows="1" fold="1" page="1" pageScale="1" pageWidth="827" pageHeight="1169" math="0" shadow="0">
            <root>
                <mxCell id="0"/>
                <mxCell id="1" parent="0"/>
                <mxCell id="2" value="" style="whiteSpace=wrap;html=1;aspect=fixed;strokeColor=#00CC00;" vertex="1" parent="1">
                    <mxGeometry x="50" y="40" width="750" height="750" as="geometry"/>
                </mxCell>
                <mxCell id="3" value="Header" style="rounded=1;whiteSpace=wrap;html=1;" vertex="1" parent="1">
                    <mxGeometry x="60" y="60" width="730" height="80" as="geometry"/>
                </mxCell>
                <mxCell id="4" value="Footer" style="rounded=1;whiteSpace=wrap;html=1;" vertex="1" parent="1">
                    <mxGeometry x="60" y="700" width="730" height="80" as="geometry"/>
                </mxCell>
                <mxCell id="5" value="Change Info" style="ellipse;whiteSpace=wrap;html=1;strokeColor=#00CC00;" vertex="1" parent="1">
                    <mxGeometry x="650" y="600" width="120" height="80" as="geometry"/>
                </mxCell>
                <mxCell id="6" value="Admin" style="ellipse;whiteSpace=wrap;html=1;strokeColor=#660066;" vertex="1" parent="1">
                    <mxGeometry x="650" y="505" width="120" height="80" as="geometry"/>
                </mxCell>
                <mxCell id="7" value="Image de Profil" style="ellipse;whiteSpace=wrap;html=1;aspect=fixed;strokeColor=#00CC00;" vertex="1" parent="1">
                    <mxGeometry x="110" y="180" width="140" height="140" as="geometry"/>
                </mxCell>
                <mxCell id="8" value="Email :&amp;nbsp; Test@gmail.com" style="text;html=1;strokeColor=none;fillColor=none;align=left;verticalAlign=middle;whiteSpace=wrap;rounded=0;" vertex="1" parent="1">
                    <mxGeometry x="310" y="200" width="250" height="30" as="geometry"/>
                </mxCell>
                <mxCell id="9" value="Nom de Profil:&amp;nbsp; Test" style="text;html=1;strokeColor=none;fillColor=none;align=left;verticalAlign=middle;whiteSpace=wrap;rounded=0;" vertex="1" parent="1">
                    <mxGeometry x="310" y="240" width="250" height="30" as="geometry"/>
                </mxCell>
                <mxCell id="10" value="Genre:&amp;nbsp; Test" style="text;html=1;strokeColor=none;fillColor=none;align=left;verticalAlign=middle;whiteSpace=wrap;rounded=0;" vertex="1" parent="1">
                    <mxGeometry x="310" y="280" width="250" height="30" as="geometry"/>
                </mxCell>
                <mxCell id="11" value="Last Product See" style="whiteSpace=wrap;html=1;aspect=fixed;strokeColor=#00CC00;" vertex="1" parent="1">
                    <mxGeometry x="170" y="370" width="120" height="120" as="geometry"/>
                </mxCell>
                <mxCell id="12" value="Last Product Buy" style="whiteSpace=wrap;html=1;aspect=fixed;strokeColor=#00CC00;" vertex="1" parent="1">
                    <mxGeometry x="360" y="370" width="120" height="120" as="geometry"/>
                </mxCell>
                <mxCell id="13" value="Last Product Add to Panier" style="whiteSpace=wrap;html=1;aspect=fixed;strokeColor=#00CC00;" vertex="1" parent="1">
                    <mxGeometry x="560" y="370" width="120" height="120" as="geometry"/>
                </mxCell>
            </root>
        </mxGraphModel>
    </diagram>
</mxfile>